<svg width="20" height="20" viewBox="0 0 20 20" fill="none" xmlns="http://www.w3.org/2000/svg">
<path d="M9.99994 13.7501C8.02468 13.7501 6.42572 12.2212 6.27859 10.2837L3.54682 8.17247C3.1877 8.62299 2.85723 9.09929 2.59057 9.62012C2.53099 9.73796 2.49996 9.86816 2.49996 10.0002C2.49996 10.1322 2.53099 10.2624 2.59057 10.3803C4.00281 13.1357 6.79864 15.0001 9.99994 15.0001C10.7007 15.0001 11.3768 14.8959 12.0283 14.7277L10.677 13.6821C10.4539 13.7252 10.2272 13.748 9.99994 13.7501ZM18.1723 15.2631L15.2934 13.0381C16.168 12.3011 16.8872 11.3975 17.4093 10.38C17.4689 10.2622 17.4999 10.132 17.4999 9.99994C17.4999 9.8679 17.4689 9.7377 17.4093 9.61986C15.9971 6.86439 13.2012 5.00007 9.99994 5.00007C8.65919 5.0017 7.34021 5.33923 6.16348 5.98184L2.85046 3.42116C2.80726 3.38755 2.75786 3.36277 2.70507 3.34825C2.65229 3.33374 2.59717 3.32976 2.54285 3.33656C2.48853 3.34335 2.43609 3.36079 2.38851 3.38786C2.34093 3.41493 2.29915 3.45112 2.26557 3.49434L1.75437 4.15241C1.68656 4.23965 1.65617 4.35025 1.66989 4.45989C1.68361 4.56952 1.74032 4.66922 1.82755 4.73705L17.1494 16.579C17.1926 16.6126 17.242 16.6374 17.2948 16.6519C17.3476 16.6664 17.4027 16.6704 17.457 16.6636C17.5113 16.6568 17.5638 16.6394 17.6114 16.6123C17.659 16.5852 17.7007 16.549 17.7343 16.5058L18.2458 15.8477C18.3136 15.7605 18.3439 15.6498 18.3301 15.5402C18.3164 15.4306 18.2596 15.3309 18.1723 15.2631ZM13.388 11.5652L12.3645 10.774C12.4507 10.5249 12.4964 10.2636 12.4999 10.0001C12.505 9.6142 12.4195 9.23252 12.2503 8.88568C12.0812 8.53884 11.833 8.23652 11.5258 8.00299C11.2185 7.76947 10.8608 7.61125 10.4814 7.54104C10.1019 7.47084 9.71126 7.49061 9.34083 7.59877C9.49786 7.81156 9.58281 8.06895 9.58327 8.3334C9.57939 8.42141 9.56594 8.50873 9.54317 8.59382L7.62624 7.11231C8.29212 6.55585 9.13216 6.25071 9.99994 6.25007C10.4925 6.2498 10.9802 6.34661 11.4353 6.53497C11.8904 6.72332 12.3039 6.99954 12.6522 7.34781C13.0005 7.69608 13.2767 8.10959 13.465 8.56468C13.6534 9.01978 13.7502 9.50754 13.7499 10.0001C13.7499 10.5634 13.6122 11.0884 13.388 11.5654V11.5652Z" fill="#9FA2B4"/>
</svg>
